<?xml version="1.0" encoding="UTF-8"?><svg id="Layer_2" xmlns="http://www.w3.org/2000/svg" viewBox="0 0 126.78 192.15"><defs><style>.cls-1{fill:#f4f0e9;stroke-width:0px;}</style></defs><g id="Layer_1-2"><path class="cls-1" d="M84.01,142.63c18.94-34.08,13.79-72.89-3.39-98.51-6.16,5.46-11.14,11.73-15.08,18.84-.57,1.03-.55,1.84-.06,2.89,3.91,8.33,6.19,17.11,6.57,26.3.91,21.94-6.43,40.7-22.23,55.97-11.13,10.76-24.48,17.25-39.85,19.42-3.26.46-6.57.61-9.91.9v23.61c30.72.43,65.25-15.78,83.95-49.42Z"/><path class="cls-1" d="M61.46,22.26C43.45,7.62,23.09.24,0,0v23.88c17.09.16,32.19,5.66,45.56,16.33,4.61-6.6,9.84-12.54,15.91-17.95Z"/><path class="cls-1" d="M65.33,169.9c18.04,14.66,38.4,22.04,61.42,22.25v-23.86c-17.09-.17-32.19-5.68-45.52-16.34-4.58,6.6-9.81,12.51-15.9,17.95Z"/><path class="cls-1" d="M43.31,48.62c-19.77,34.61-14.22,74.15,2.81,99.29.09-.02.19-.01.25-.06.22-.16.42-.34.62-.52,5.76-5.28,10.52-11.32,14.29-18.17.54-.98.55-1.75.08-2.76-3.98-8.41-6.24-17.28-6.62-26.56-.85-20.35,5.54-38.16,19.5-53.03,11.71-12.48,26.14-19.98,43.17-22.25,3.08-.41,6.2-.55,9.37-.82V.18c-27.01-.76-63.25,13.03-83.47,48.44Z"/></g></svg>